<?xml version="1.0" encoding="UTF-8"?>
<svg width="24px" height="24px" viewBox="0 0 24 24" version="1.1" xmlns="http://www.w3.org/2000/svg" xmlns:xlink="http://www.w3.org/1999/xlink">
    <!-- Generator: Sketch 45.1 (43504) - http://www.bohemiancoding.com/sketch -->
    <title>brunch</title>
    <desc>Created with Sketch.</desc>
    <defs></defs>
    <g id="Page-1" stroke="none" stroke-width="1" fill="none" fill-rule="evenodd" stroke-linecap="round" stroke-linejoin="round">
        <g id="brunch" stroke="#403D58">
            <g id="Page-1" transform="translate(1.000000, 2.000000)">
                <path d="M6.7256,19.1514 L11.3016,14.5344 L11.3036,14.5334 C11.3036,14.5334 15.5206,12.8154 19.0286,8.4874 C22.5376,4.1604 21.2816,2.1194 21.2816,2.1194 L4.7046,18.8444 C4.7046,18.8444 4.0536,19.5184 4.7046,20.1734 C5.3566,20.8294 6.0336,20.0804 6.0336,20.0804" id="Stroke-1"></path>
                <path d="M14.209,13.0405 L19.999,18.7485" id="Stroke-3"></path>
                <path d="M4.416,0.5 L9.574,5.503 C9.574,5.503 11.499,7.267 10.437,9.321 L12.312,11.169" id="Stroke-5"></path>
                <path d="M12.6455,13.8633 L18.7645,20.2813 C18.7645,20.2813 19.3535,20.9033 20.2005,20.0503" id="Stroke-7"></path>
                <path d="M0.5,4.2485 L5.469,9.4435 C5.469,9.4435 7.22,11.3815 9.259,10.3115 L11.173,12.3185" id="Stroke-9"></path>
                <path d="M3.127,1.7974 L8.286,6.8004" id="Stroke-11"></path>
                <path d="M1.8262,3.1079 L6.9852,8.1109" id="Stroke-13"></path>
            </g>
        </g>
    </g>
</svg>