<?xml version="1.0" encoding="UTF-8"?>
<svg width="24px" height="24px" viewBox="0 0 24 24" version="1.1" xmlns="http://www.w3.org/2000/svg" xmlns:xlink="http://www.w3.org/1999/xlink">
    <!-- Generator: Sketch 45.1 (43504) - http://www.bohemiancoding.com/sketch -->
    <title>dairy-free</title>
    <desc>Created with Sketch.</desc>
    <defs></defs>
    <g id="Page-1" stroke="none" stroke-width="1" fill="none" fill-rule="evenodd" stroke-linecap="round" stroke-linejoin="round">
        <g id="dairy-free" stroke="#403D58">
            <g id="Page-1" transform="translate(3.000000, 2.000000)">
                <path d="M7.7109,2.751 C7.5319,4.441 6.6279,5.952 5.9769,7.522 C4.7319,10.523 5.0269,18.881 5.0269,18.881" id="Stroke-1"></path>
                <path d="M11.2891,2.751 C11.4681,4.441 12.3721,5.952 13.0231,7.522 C14.2681,10.523 13.9731,18.881 13.9731,18.881 C13.9731,18.881 14.2551,20.5 6.1651,20.5" id="Stroke-3"></path>
                <path d="M10.9961,2.5225 L8.0751,2.5225 C7.5171,2.5225 7.0641,2.0695 7.0641,1.5115 C7.0641,0.9525 7.5171,0.5005 8.0751,0.5005 L10.9961,0.5005 C11.5551,0.5005 12.0081,0.9525 12.0081,1.5115 C12.0081,2.0695 11.5551,2.5225 10.9961,2.5225 Z" id="Stroke-5"></path>
                <path d="M12.0078,5.6685 L7.0648,5.6685" id="Stroke-7"></path>
                <path d="M0.5,1.5 L18.5,19.5" id="Stroke-9"></path>
            </g>
        </g>
    </g>
</svg>