<?xml version="1.0" encoding="UTF-8"?>
<svg width="24px" height="24px" viewBox="0 0 24 24" version="1.1" xmlns="http://www.w3.org/2000/svg" xmlns:xlink="http://www.w3.org/1999/xlink">
    <!-- Generator: Sketch 45.1 (43504) - http://www.bohemiancoding.com/sketch -->
    <title>kids</title>
    <desc>Created with Sketch.</desc>
    <defs></defs>
    <g id="Page-1" stroke="none" stroke-width="1" fill="none" fill-rule="evenodd" stroke-linecap="round" stroke-linejoin="round">
        <g id="kids" stroke="#403D58">
            <g id="Group" transform="translate(1.000000, 2.000000)">
                <path d="M11.3344,18.7101409 C11.3344,19.7114591 10.5213565,20.5228227 9.52083478,20.5228227 C8.5184,20.5228227 7.70535652,19.7114591 7.70535652,18.7101409 C7.70535652,17.7088227 8.5184,16.8974591 9.52083478,16.8974591 C10.5213565,16.8974591 11.3344,17.7088227 11.3344,18.7101409 Z" id="Stroke-1"></path>
                <path d="M17.5443304,18.7101409 C17.5443304,19.7114591 16.731287,20.5228227 15.7307652,20.5228227 C14.7283304,20.5228227 13.915287,19.7114591 13.915287,18.7101409 C13.915287,17.7088227 14.7283304,16.8974591 15.7307652,16.8974591 C16.731287,16.8974591 17.5443304,17.7088227 17.5443304,18.7101409 Z" id="Stroke-3"></path>
                <path d="M18.3074435,7.6545 L3.7664,7.6545 C3.7664,11.6072727 7.02144348,14.8116818 11.0359652,14.8116818 L14.2517913,14.8116818 C18.266313,14.8116818 21.5213565,11.6072727 21.5213565,7.6545" id="Stroke-5"></path>
                <path d="M14.2516,7.6545 L14.2516,0.477272727 C18.2661217,0.477272727 21.5221217,3.68168182 21.5221217,7.63445455" id="Stroke-7"></path>
                <path d="M3.76630435,7.6545 L0.477782609,4.41763636" id="Stroke-9"></path>
            </g>
        </g>
    </g>
</svg>