<?xml version="1.0" encoding="UTF-8"?>
<svg width="24px" height="24px" viewBox="0 0 24 24" version="1.1" xmlns="http://www.w3.org/2000/svg" xmlns:xlink="http://www.w3.org/1999/xlink">
    <!-- Generator: Sketch 45.1 (43504) - http://www.bohemiancoding.com/sketch -->
    <title>outside-seating</title>
    <desc>Created with Sketch.</desc>
    <defs></defs>
    <g id="Page-1" stroke="none" stroke-width="1" fill="none" fill-rule="evenodd" stroke-linecap="round" stroke-linejoin="round">
        <g id="outside-seating" stroke="#403D58">
            <g id="Page-1" transform="translate(2.000000, 2.000000)">
                <path d="M10.5218095,14.7954286 C7.87419048,15.084 5.4932381,13.1706667 5.20466667,10.5220952 C4.91609524,7.87352381 6.82942857,5.49257143 9.478,5.20495238 C12.1265714,4.91638095 14.5075238,6.82971429 14.7951429,9.47828571 C14.985619,11.2201905 14.2218095,12.8468571 12.9227619,13.8382857" id="Stroke-1"></path>
                <path d="M10,0.476190476 L10,3.69142857" id="Stroke-3"></path>
                <path d="M10,16.3080952 L10,19.5233333" id="Stroke-5"></path>
                <path d="M0.476190476,10 L3.69238095,10" id="Stroke-7"></path>
                <path d="M16.307619,10 L19.5238095,10" id="Stroke-9"></path>
                <path d="M3.26542857,3.26542857 L5.53971429,5.53971429" id="Stroke-11"></path>
                <path d="M14.4605714,14.4605714 L16.7348571,16.7348571" id="Stroke-13"></path>
                <path d="M3.26542857,16.7345714 L5.53971429,14.4602857" id="Stroke-15"></path>
                <path d="M14.4605714,5.53942857 L16.7348571,3.26514286" id="Stroke-17"></path>
            </g>
        </g>
    </g>
</svg>