<?xml version="1.0" encoding="UTF-8"?>
<svg width="24px" height="24px" viewBox="0 0 24 24" version="1.1" xmlns="http://www.w3.org/2000/svg" xmlns:xlink="http://www.w3.org/1999/xlink">
    <!-- Generator: Sketch 45.1 (43504) - http://www.bohemiancoding.com/sketch -->
    <title>pet</title>
    <desc>Created with Sketch.</desc>
    <defs></defs>
    <g id="Page-1" stroke="none" stroke-width="1" fill="none" fill-rule="evenodd" stroke-linecap="round" stroke-linejoin="round">
        <g id="pet" stroke="#403D58">
            <g id="Page-1" transform="translate(2.000000, 2.000000)">
                <path d="M15.0501905,3.72019048 C14.7959048,5.32971429 13.6987619,6.49542857 12.5987619,6.32209524 C11.4987619,6.14971429 10.8149524,4.70495238 11.0682857,3.09542857 C11.3235238,1.48495238 12.4206667,0.320190476 13.5206667,0.492571429 C14.6197143,0.665904762 15.3054286,2.11066667 15.0501905,3.72019048 Z" id="Stroke-1"></path>
                <path d="M19.0550476,8.59371429 C18.383619,9.67657143 17.2407619,10.1851429 16.5007619,9.72990476 C15.7617143,9.27466667 15.7055238,8.02704762 16.376,6.94514286 C17.048381,5.86133333 18.1912381,5.3527619 18.9302857,5.80895238 C19.6702857,6.26419048 19.7255238,7.51085714 19.0550476,8.59371429 Z" id="Stroke-3"></path>
                <path d="M4.89485714,3.72019048 C5.14914286,5.32971429 6.24628571,6.49542857 7.34533333,6.32209524 C8.44533333,6.14971429 9.13009524,4.70495238 8.87580952,3.09542857 C8.62152381,1.48495238 7.52438095,0.320190476 6.42438095,0.492571429 C5.32533333,0.665904762 4.63961905,2.11066667 4.89485714,3.72019048 Z" id="Stroke-5"></path>
                <path d="M0.944952381,8.59371429 C1.61638095,9.67657143 2.7592381,10.1851429 3.4992381,9.72990476 C4.23828571,9.27466667 4.29447619,8.02704762 3.624,6.94514286 C2.95161905,5.86133333 1.8087619,5.3527619 1.06971429,5.80895238 C0.329714286,6.26419048 0.27447619,7.51085714 0.944952381,8.59371429 Z" id="Stroke-7"></path>
                <path d="M10.1153333,19.5238095 C6.9772381,19.5238095 4.43247619,17.112381 4.43247619,14.1380952 C4.43247619,11.1638095 6.9772381,8.75238095 10.1153333,8.75238095 C13.254381,8.75238095 15.7991429,11.1638095 15.7991429,14.1380952 C15.7991429,16.2790476 14.4800952,18.1285714 12.5705714,18.9961905" id="Stroke-9"></path>
            </g>
        </g>
    </g>
</svg>