<?xml version="1.0" encoding="UTF-8"?>
<svg width="24px" height="24px" viewBox="0 0 24 24" version="1.1" xmlns="http://www.w3.org/2000/svg" xmlns:xlink="http://www.w3.org/1999/xlink">
    <!-- Generator: Sketch 45.1 (43504) - http://www.bohemiancoding.com/sketch -->
    <title>toilet</title>
    <desc>Created with Sketch.</desc>
    <defs></defs>
    <g id="Page-1" stroke="none" stroke-width="1" fill="none" fill-rule="evenodd" stroke-linecap="round" stroke-linejoin="round">
        <g id="toilet" stroke="#403D58">
            <g id="Group-3" transform="translate(2.000000, 2.000000)">
                <g id="Group">
                    <path d="M6.1953,2.2324 C6.1953,3.1894 5.4343,3.9644 4.4973,3.9644 C3.5583,3.9644 2.7993,3.1894 2.7993,2.2324 C2.7993,1.2754 3.5583,0.5004 4.4973,0.5004 C5.4343,0.5004 6.1953,1.2754 6.1953,2.2324 Z" id="Stroke-1"></path>
                    <polyline id="Stroke-3" points="2.7988 16.0352 2.7988 19.5002 6.1948 19.5002 6.1948 16.0352 8.4928 16.0352 6.9578 5.3782 2.0348 5.3782 0.4998 16.0352"></polyline>
                </g>
                <g id="Group-2" transform="translate(11.000000, 0.000000)">
                    <path d="M6.2012,2.2324 C6.2012,3.1894 5.4412,3.9644 4.5032,3.9644 C3.5652,3.9644 2.8052,3.1894 2.8052,2.2324 C2.8052,1.2754 3.5652,0.5004 4.5032,0.5004 C5.4412,0.5004 6.2012,1.2754 6.2012,2.2324 Z" id="Stroke-5"></path>
                    <polyline id="Stroke-7" points="8.5 13.4243 8.5 5.3783 0.507 5.3783 0.507 13.4243 2.805 13.4243 2.805 19.5003 6.201 19.5003 6.201 13.4243"></polyline>
                </g>
            </g>
        </g>
    </g>
</svg>