<?xml version="1.0" encoding="UTF-8"?>
<svg width="89px" height="28px" viewBox="0 0 89 28" version="1.1" xmlns="http://www.w3.org/2000/svg" xmlns:xlink="http://www.w3.org/1999/xlink">
    <!-- Generator: Sketch 43.1 (39012) - http://www.bohemiancoding.com/sketch -->
    <title>icon-above-font</title>
    <desc>Created with Sketch.</desc>
    <defs>
        <linearGradient x1="0%" y1="0%" x2="100%" y2="0%" id="linearGradient-1">
            <stop stop-color="#EA8C55" offset="0%"></stop>
            <stop stop-color="#EA8C55" offset="100%"></stop>
        </linearGradient>
        <linearGradient x1="100%" y1="0%" x2="100%" y2="0%" id="linearGradient-2">
            <stop stop-color="#EA8C55" offset="0%"></stop>
            <stop stop-color="#EA8C55" offset="100%"></stop>
        </linearGradient>
    </defs>
    <g id="Page-1" stroke="none" stroke-width="1" fill="none" fill-rule="evenodd">
        <g id="icon-above-font" fill-rule="nonzero" fill="url(#linearGradient-2)">
            <g id="f0951b48-9726-617e-dc79-f1f1b786f69b">
                <path d="M6.96374999,21.8982598 C8.77825368,21.8982598 10.2737238,21.3278061 11.4900394,20.334794 L9.85499214,18.1797465 C9.1371665,18.9192236 8.12024685,19.3417819 7.02356879,19.3417819 C4.43142066,19.3417819 2.87613178,17.2501182 2.87613178,14.503489 C2.87613178,11.7779878 4.43142066,9.70745192 7.02356879,9.70745192 C8.12024685,9.70745192 9.1371665,10.1300103 9.85499214,10.8694873 L11.4900394,8.71443984 C10.2737238,7.74255568 8.77825368,7.15097401 6.96374999,7.15097401 C2.85619218,7.15097401 0.00482923733,10.3835453 0.00482923733,14.503489 C0.00482923733,18.6656886 2.85619218,21.8982598 6.96374999,21.8982598 Z M24.1118069,7.51014859 L23.7329544,9.45391692 C22.7160348,8.03834651 21.1806855,7.15097401 19.1468462,7.15097401 C15.7172348,7.15097401 12.9655699,9.96098692 12.9655699,14.503489 C12.9655699,19.067119 15.7172348,21.8348761 19.1468462,21.8348761 C21.1408063,21.8348761 22.6960952,20.9475036 23.7130148,19.5319332 L24.1118069,21.4968294 L26.4447402,21.4968294 L26.4447402,7.51014859 L24.1118069,7.51014859 Z M19.804853,19.320654 C17.4320405,19.320654 15.856812,17.2501182 15.856812,14.503489 C15.856812,11.7779878 17.4320405,9.66519609 19.804853,9.66519609 C22.2773636,9.66519609 23.8725317,11.7779878 23.8725317,14.503489 C23.8725317,17.2501182 22.2773636,19.320654 19.804853,19.320654 Z M34.899131,2.58734402 C35.2779834,2.58734402 35.7764735,2.73523943 36.2151447,3.0732861 L37.4314603,0.897110688 C36.4942991,0.305529023 35.7166547,0.0308661064 34.600037,0.0308661064 C32.2471641,0.0308661064 30.5921772,1.76335527 30.5921772,5.12269401 L30.5921772,7.51014859 L28.8574319,7.51014859 L28.8574319,9.91873109 L30.5921772,9.91873109 L30.5921772,21.4968294 L33.3837213,21.4968294 L33.3837213,9.91873109 L36.1553259,9.91873109 L36.1553259,7.51014859 L33.3837213,7.51014859 L33.3837213,4.89028693 C33.3837213,3.53810027 33.7625738,2.58734402 34.899131,2.58734402 Z M50.8707514,14.2076982 C50.8707514,10.0454986 48.2187845,7.15097401 44.3704415,7.15097401 C40.4224005,7.15097401 37.5710376,10.3835453 37.5710376,14.503489 C37.5710376,18.6445607 40.4024609,21.8348761 44.7293543,21.8348761 C47.0024688,21.8348761 48.9166705,21.0108873 50.1130466,19.5953169 L48.1589657,17.9262115 C47.3215024,18.9403515 46.1849452,19.4685494 44.6894751,19.4685494 C42.2369042,19.4685494 40.7414341,17.6515486 40.5420381,15.1584544 L50.8707514,15.1584544 L50.8707514,14.2076982 Z M44.3704415,9.55955651 C46.44416,9.55955651 47.7801133,10.8694873 48.0792073,13.0879186 L40.6616757,13.0879186 C41.0604677,10.9751269 42.4363002,9.55955651 44.3704415,9.55955651 Z M60.9003707,7.15097401 C58.9263502,7.15097401 57.4109406,8.01721859 56.3541417,9.39053317 L56.1348061,7.51014859 L53.6622956,7.51014859 L53.6622956,27.9830998 L56.4737793,27.9830998 L56.4737793,19.7432123 C57.490699,21.0531432 58.986169,21.8348761 60.9003707,21.8348761 C64.3299821,21.8348761 67.0617075,19.067119 67.0617075,14.503489 C67.0617075,9.96098692 64.3299821,7.15097401 60.9003707,7.15097401 Z M60.2224243,19.320654 C57.7499138,19.320654 56.1547457,17.2501182 56.1547457,14.503489 C56.1547457,11.7779878 57.7499138,9.66519609 60.2224243,9.66519609 C62.6151764,9.66519609 64.1904049,11.7779878 64.1904049,14.503489 C64.1904049,17.2501182 62.6151764,19.320654 60.2224243,19.320654 Z M80.2417837,7.51014859 L79.8629313,9.45391692 C78.8460117,8.03834651 77.2907228,7.15097401 75.2568835,7.15097401 C71.8272721,7.15097401 69.0955468,9.96098692 69.0955468,14.503489 C69.0955468,19.067119 71.8272721,21.8348761 75.2568835,21.8348761 C77.2707832,21.8348761 78.8061325,20.9475036 79.8230521,19.5319332 L80.2417837,21.4968294 L82.5547774,21.4968294 L82.5547774,7.51014859 L80.2417837,7.51014859 Z M75.9348299,19.320654 C73.5420778,19.320654 71.9668493,17.2501182 71.9668493,14.503489 C71.9668493,11.7779878 73.5420778,9.66519609 75.9348299,9.66519609 C78.4073404,9.66519609 80.0025085,11.7779878 80.0025085,14.503489 C80.0025085,17.2501182 78.4073404,19.320654 75.9348299,19.320654 Z M86.1638452,21.4968294 L88.9952686,21.4968294 L88.9952686,0.559064022 L86.1638452,0.559064022 L86.1638452,21.4968294 Z" id="Shape"></path>
            </g>
        </g>
    </g>
</svg>