<?xml version="1.0" encoding="UTF-8"?>
<svg width="35px" height="35px" viewBox="0 0 35 35" version="1.1" xmlns="http://www.w3.org/2000/svg" xmlns:xlink="http://www.w3.org/1999/xlink">
    <!-- Generator: Sketch 52.2 (67145) - http://www.bohemiancoding.com/sketch -->
    <title>play-button</title>
    <desc>Created with Sketch.</desc>
    <g id="Page-1" stroke="none" stroke-width="1" fill="none" fill-rule="evenodd">
        <g id="play-button" fill-rule="nonzero">
            <path d="M24.6652592,17.1156709 L14.8237546,10.5782822 C14.5178011,10.3589543 13.7019251,10.3589543 13.6363636,11.1867405 L13.6363636,24.2615177 C13.7092097,25.0893039 14.5396549,25.1034541 14.8237546,24.869976 L24.6652592,18.3325873 C24.9202204,18.1840103 25.2698816,17.5755521 24.6652592,17.1156709 Z M15.1588466,22.8677238 L15.1588466,12.5805344 L22.887815,17.7241291 L15.1588466,22.8677238 Z" id="Shape" fill="#FFFFFF"></path>
            <path d="M17.5,0 C7.85,0 0,7.85 0,17.5 C0,27.15 7.85,35 17.5,35 C27.15,35 35,27.15 35,17.5 C35,7.85 27.15,0 17.5,0 Z M17.5,33.5071429 C8.67142857,33.5071429 1.49285714,26.3285714 1.49285714,17.5 C1.49285714,8.67142857 8.67142857,1.49285714 17.5,1.49285714 C26.3285714,1.49285714 33.5071429,8.67142857 33.5071429,17.5 C33.5071429,26.3285714 26.3285714,33.5071429 17.5,33.5071429 Z" id="Shape" fill="#A5A5A5"></path>
        </g>
    </g>
</svg>